<svg width="38" height="38" viewBox="0 0 38 38" fill="none" xmlns="http://www.w3.org/2000/svg">
<rect width="38" height="38" rx="11" fill="url(#paint0_linear_4_98)"/>
<path d="M19.931 17.4705C17.5588 16.8539 16.796 16.2165 16.796 15.2237C16.796 14.0847 17.8514 13.2905 19.6175 13.2905C21.4776 13.2905 22.1673 14.1787 22.23 15.485H24.5394C24.4663 13.6876 23.369 12.0365 21.185 11.5035V9.215H18.05V11.4722C16.0227 11.9111 14.3925 13.2278 14.3925 15.2446C14.3925 17.6586 16.3884 18.8603 19.304 19.5605C21.9165 20.1875 22.439 21.1071 22.439 22.0789C22.439 22.8 21.9269 23.9495 19.6175 23.9495C17.4648 23.9495 16.6183 22.9881 16.5034 21.755H14.2044C14.3298 24.0435 16.0436 25.3289 18.05 25.7573V28.025H21.185V25.7782C23.2227 25.3916 24.8425 24.2107 24.8425 22.0685C24.8425 19.1007 22.3032 18.087 19.931 17.4705Z" fill="white"/>
<defs>
<linearGradient id="paint0_linear_4_98" x1="19" y1="0" x2="19" y2="38" gradientUnits="userSpaceOnUse">
<stop stop-color="#047AFC"/>
<stop offset="1" stop-color="#024996"/>
</linearGradient>
</defs>
</svg>
