<svg width="50" height="50" viewBox="0 0 50 50" fill="none" xmlns="http://www.w3.org/2000/svg">
<rect width="50" height="50" rx="11" fill="url(#paint0_linear_4_91)"/>
<g clip-path="url(#clip0_4_91)">
<path d="M36.8858 20.1267L35.1292 22.7617C35.9695 24.4377 36.3809 26.296 36.3265 28.1701C36.2721 30.0442 35.7536 31.8755 34.8175 33.5H15.1825C13.9658 31.3893 13.4617 28.9428 13.7448 26.523C14.0279 24.1033 15.0832 21.8392 16.7543 20.0664C18.4253 18.2935 20.6232 17.1064 23.022 16.6809C25.4208 16.2554 27.8928 16.6142 30.0717 17.7042L32.7067 15.9475C29.9152 14.1383 26.5761 13.3691 23.2744 13.7747C19.9727 14.1803 16.9191 15.7349 14.6485 18.1659C12.3779 20.597 11.0353 23.7495 10.8557 27.0712C10.6762 30.3928 11.6713 33.6717 13.6667 36.3333H36.3333C38.071 34.0118 39.0543 31.2129 39.1506 28.3146C39.2469 25.4164 38.4514 22.5584 36.8717 20.1267H36.8858Z" fill="white"/>
<path d="M23.0025 29.8308C23.2656 30.0943 23.5781 30.3032 23.9221 30.4458C24.266 30.5884 24.6347 30.6618 25.0071 30.6618C25.3794 30.6618 25.7481 30.5884 26.0921 30.4458C26.436 30.3032 26.7485 30.0943 27.0117 29.8308L35.03 17.8033L23.0025 25.8217C22.7391 26.0848 22.5301 26.3973 22.3875 26.7412C22.2449 27.0852 22.1715 27.4539 22.1715 27.8262C22.1715 28.1986 22.2449 28.5673 22.3875 28.9112C22.5301 29.2552 22.7391 29.5677 23.0025 29.8308Z" fill="white"/>
</g>
<defs>
<linearGradient id="paint0_linear_4_91" x1="25" y1="0" x2="25" y2="50" gradientUnits="userSpaceOnUse">
<stop stop-color="#047AFC"/>
<stop offset="1" stop-color="#024996"/>
</linearGradient>
<clipPath id="clip0_4_91">
<rect width="34" height="34" fill="white" transform="translate(8 8)"/>
</clipPath>
</defs>
</svg>
